<svg class="icon" viewBox="0 0 1038 1024" version="1.1" xmlns="http://www.w3.org/2000/svg" width="16" height="16"><path d="M445.411299 539.496019q25.974309-2.886034 36.556435 7.696092t8.658103 35.594423q-1.924023 25.974309-5.772069 58.682698t-8.177097 66.859795-8.177097 67.821807-6.73408 62.530744q-2.886034 30.784366-17.316206 38.961464t-31.746378-10.10112q-10.582126-10.582126-26.93632-25.974309t-27.898332-25.974309q-12.506149-12.506149-23.088275-8.658103t-24.050286 17.316206q-14.430172 14.430172-37.999452 38.480458t-49.062584 50.024595-49.543589 50.505601-39.442469 38.961464q-5.772069 6.73408-13.949166 12.506149t-17.316206 8.177097-19.240229-0.481006-21.645258-14.430172q-6.73408-6.73408-11.063132-10.582126t-8.177097-7.696092l-8.658103-8.658103-12.506149-12.506149q-21.164252-21.164252-16.8352-36.556435t25.493303-37.518446q9.620114-9.620114 31.746378-31.265372t46.657555-46.657555 47.619567-48.581578 36.556435-37.037441q19.240229-19.240229 25.974309-33.189395t-6.73408-27.417326q-9.620114-9.620114-24.050286-25.493303t-25.012298-26.455315q-17.316206-17.316206-12.987155-31.265372t31.265372-16.8352 60.606721-7.215086 69.264824-8.177097 70.226836-8.177097 63.492755-7.215086zM1018.770121 53.680239q21.164252 21.164252 18.759223 37.999452t-24.531292 38.961464q-10.582126 10.582126-32.227383 32.708389t-47.138561 47.619567-49.062584 49.543589-37.037441 37.518446q-19.240229 19.240229-23.56928 30.784366t9.139109 25.012298q9.620114 9.620114 22.607269 23.56928t23.56928 24.531292q17.316206 17.316206 12.506149 31.265372t-30.784366 16.8352q-26.93632 2.886034-60.606721 7.215086t-69.74583 8.177097-70.707841 8.177097-62.530744 7.215086q-50.024595 5.772069-46.176549-42.328504 2.886034-25.974309 6.253074-58.682698t7.696092-67.340801 8.177097-68.302813 6.73408-62.530744q2.886034-30.784366 17.316206-38.961464t32.708389 10.10112q4.810057 5.772069 12.506149 12.987155t15.873189 14.911177 15.873189 14.911177 13.46816 12.987155q12.506149 12.506149 20.20224 11.063132t21.164252-14.911177q14.430172-14.430172 38.480458-38.961464t50.505601-50.986607 50.986607-51.467612 39.923475-40.404481q5.772069-5.772069 13.46816-12.025143t16.354195-9.139109 18.278217-0.962011 21.164252 13.46816q6.73408 6.73408 11.063132 10.582126t8.177097 7.696092l8.658103 8.658103z"></path></svg>
